<svg xmlns="http://www.w3.org/2000/svg" width="700" height="839">
 <!-- Created with Image Occlusion Enhanced -->
 <g>
  <title>Labels</title>
 </g>
 <g>
  <title>Masks</title>
  <rect id="8fcc38d2c25c41b595bd2a2bd855caf7-ao-1" height="26.76056" width="140.84507" y="180.99999" x="175.21127" stroke="#2D2D2D" fill="#FF7E7E" class="qshape"/>
  <rect id="8fcc38d2c25c41b595bd2a2bd855caf7-ao-2" height="18.30986" width="128.16901" y="83.8169" x="355.49296" stroke="#2D2D2D" fill="#FFEBA2"/>
  <rect id="8fcc38d2c25c41b595bd2a2bd855caf7-ao-3" height="32.39437" width="102.8169" y="179.59154" x="530.14085" stroke="#2D2D2D" fill="#FFEBA2"/>
  <rect id="8fcc38d2c25c41b595bd2a2bd855caf7-ao-4" height="25.35211" width="140.84507" y="210.57746" x="317.46479" stroke="#2D2D2D" fill="#FFEBA2"/>
  <rect id="8fcc38d2c25c41b595bd2a2bd855caf7-ao-5" height="19.71831" width="78.87324" y="213.39436" x="175.21127" stroke="#2D2D2D" fill="#FFEBA2"/>
  <rect id="8fcc38d2c25c41b595bd2a2bd855caf7-ao-6" height="23.94366" width="54.92958" y="207.76056" x="65.35211" stroke="#2D2D2D" fill="#FFEBA2"/>
  <rect id="8fcc38d2c25c41b595bd2a2bd855caf7-ao-7" height="25.35211" width="52.11268" y="340.15492" x="56.90141" stroke="#2D2D2D" fill="#FFEBA2"/>
  <rect id="8fcc38d2c25c41b595bd2a2bd855caf7-ao-8" height="30.98592" width="64.78873" y="340.15492" x="144.22535" stroke="#2D2D2D" fill="#FFEBA2"/>
  <rect id="8fcc38d2c25c41b595bd2a2bd855caf7-ao-9" height="21.12676" width="61.97183" y="344.38028" x="224.50704" stroke="#2D2D2D" fill="#FFEBA2"/>
  <rect id="8fcc38d2c25c41b595bd2a2bd855caf7-ao-10" height="36.61972" width="100" y="447.19718" x="273.80282" stroke="#2D2D2D" fill="#FFEBA2"/>
  <rect id="8fcc38d2c25c41b595bd2a2bd855caf7-ao-11" height="26.76056" width="88.73239" y="454.23943" x="379.43662" stroke="#2D2D2D" fill="#FFEBA2"/>
  <rect id="8fcc38d2c25c41b595bd2a2bd855caf7-ao-12" height="30.98592" width="105.6338" y="565.50704" x="379.43662" stroke="#2D2D2D" fill="#FFEBA2"/>
  <rect id="8fcc38d2c25c41b595bd2a2bd855caf7-ao-13" height="30.98592" width="63.38028" y="342.97183" x="466.76056" stroke="#2D2D2D" fill="#FFEBA2"/>
  <rect id="8fcc38d2c25c41b595bd2a2bd855caf7-ao-14" height="29.57746" width="59.15493" y="341.56338" x="549.85915" stroke="#2D2D2D" fill="#FFEBA2"/>
  <rect id="8fcc38d2c25c41b595bd2a2bd855caf7-ao-15" height="28.16901" width="43.66197" y="340.15492" x="638.59155" stroke="#2D2D2D" fill="#FFEBA2"/>
  <rect id="8fcc38d2c25c41b595bd2a2bd855caf7-ao-16" height="50.70423" width="128.16901" y="33.11267" x="434.3662" stroke="#2D2D2D" fill="#FFEBA2"/>
  <rect id="8fcc38d2c25c41b595bd2a2bd855caf7-ao-17" height="42.25352" width="87.32394" y="123.25352" x="610.42254" stroke="#2D2D2D" fill="#FFEBA2"/>
  <rect id="8fcc38d2c25c41b595bd2a2bd855caf7-ao-18" height="43.66197" width="157.74648" y="111.98591" x="51.26761" stroke="#2D2D2D" fill="#FFEBA2"/>
  <rect id="8fcc38d2c25c41b595bd2a2bd855caf7-ao-19" height="15.49296" width="363.38028" y="310.57746" x="65.35211" stroke="#2D2D2D" fill="#FFEBA2"/>
  <rect id="8fcc38d2c25c41b595bd2a2bd855caf7-ao-20" height="16.90141" width="228.16901" y="310.57746" x="465.35211" stroke="#2D2D2D" fill="#FFEBA2"/>
  <rect id="8fcc38d2c25c41b595bd2a2bd855caf7-ao-21" height="21.12676" width="312.67606" y="430.29577" x="141.40845" stroke="#2D2D2D" fill="#FFEBA2"/>
 </g>
</svg>