<svg height="412.99999999999994" width="606" xmlns="http://www.w3.org/2000/svg">
 <!-- Created with Image Occlusion Enhanced -->
 <g>
  <title>Labels</title>
 </g>
 <g>
  <title>Masks</title>
  <rect fill="#FFEBA2" height="26.19048" id="93d595b6212b4756b2788c2a7a6d0c16-oa-1" stroke="#2D2D2D" width="67.85714" x="266.61903" y="185.8095"/>
  <rect fill="#FFEBA2" height="17.85714" id="93d595b6212b4756b2788c2a7a6d0c16-oa-2" stroke="#2D2D2D" width="69.04762" x="261.85713" y="158.42855"/>
  <rect fill="#FFEBA2" height="22.61905" id="93d595b6212b4756b2788c2a7a6d0c16-oa-3" stroke="#2D2D2D" width="82.14286" x="273.76189" y="225.09521"/>
  <rect fill="#FFEBA2" height="28.57143" id="93d595b6212b4756b2788c2a7a6d0c16-oa-4" stroke="#2D2D2D" width="61.90476" x="279.71427" y="254.85712"/>
  <rect fill="#FFEBA2" height="19.04762" id="93d595b6212b4756b2788c2a7a6d0c16-oa-5" stroke="#2D2D2D" width="39.28571" x="277.33332" y="296.52378"/>
  <rect fill="#FFEBA2" height="14.28571" id="93d595b6212b4756b2788c2a7a6d0c16-oa-6" stroke="#2D2D2D" width="89.28571" x="274.95237" y="328.66664"/>
  <rect fill="#FFEBA2" height="16.66667" id="93d595b6212b4756b2788c2a7a6d0c16-oa-7" stroke="#2D2D2D" width="95.23809" x="274.95237" y="357.23807"/>
  <rect fill="#FFEBA2" height="27.38095" id="93d595b6212b4756b2788c2a7a6d0c16-oa-8" stroke="#2D2D2D" width="95.23809" x="490.42855" y="351.28569"/>
  <rect fill="#FFEBA2" height="17.85714" id="93d595b6212b4756b2788c2a7a6d0c16-oa-9" stroke="#2D2D2D" width="78.57143" x="513.0476" y="322.71426"/>
  <rect fill="#FFEBA2" height="15.47619" id="93d595b6212b4756b2788c2a7a6d0c16-oa-10" stroke="#2D2D2D" width="76.19047" x="505.90474" y="292.95236"/>
  <rect fill="#FFEBA2" height="17.85714" id="93d595b6212b4756b2788c2a7a6d0c16-oa-11" stroke="#2D2D2D" width="66.66667" x="522.57141" y="258.42855"/>
  <rect fill="#FFEBA2" height="15.47619" id="93d595b6212b4756b2788c2a7a6d0c16-oa-12" stroke="#2D2D2D" width="73.80952" x="517.8095" y="225.09521"/>
  <rect fill="#FFEBA2" height="14.28571" id="93d595b6212b4756b2788c2a7a6d0c16-oa-13" stroke="#2D2D2D" width="59.52381" x="528.52379" y="196.52379"/>
  <rect fill="#FFEBA2" height="16.66667" id="93d595b6212b4756b2788c2a7a6d0c16-oa-14" stroke="#2D2D2D" width="53.57143" x="534.47617" y="160.8095"/>
  <rect fill="#FFEBA2" height="13.09524" id="93d595b6212b4756b2788c2a7a6d0c16-oa-15" stroke="#2D2D2D" width="69.04762" x="511.85712" y="132.23807"/>
  <rect fill="#FFEBA2" height="45.23809" id="93d595b6212b4756b2788c2a7a6d0c16-oa-16" stroke="#2D2D2D" width="59.52381" x="172.57142" y="158.42855"/>
  <rect fill="#FFEBA2" height="28.57143" id="93d595b6212b4756b2788c2a7a6d0c16-oa-17" stroke="#2D2D2D" width="47.61905" x="120.19046" y="89.38093"/>
  <rect fill="#FFEBA2" height="27.38095" id="93d595b6212b4756b2788c2a7a6d0c16-oa-18" stroke="#2D2D2D" width="65.47619" x="122.57142" y="117.95236"/>
  <rect fill="#FFEBA2" height="20.23809" id="93d595b6212b4756b2788c2a7a6d0c16-oa-19" stroke="#2D2D2D" width="48.80952" x="122.57142" y="215.5714"/>
 </g>
</svg>